<?xml version="1.0" encoding="UTF-8" standalone="no"?>
<!-- Created with Inkscape (http://www.inkscape.org/) -->

<svg
   xmlns:dc="http://purl.org/dc/elements/1.1/"
   xmlns:cc="http://creativecommons.org/ns#"
   xmlns:rdf="http://www.w3.org/1999/02/22-rdf-syntax-ns#"
   xmlns:svg="http://www.w3.org/2000/svg"
   xmlns="http://www.w3.org/2000/svg"
   xmlns:sodipodi="http://sodipodi.sourceforge.net/DTD/sodipodi-0.dtd"
   xmlns:inkscape="http://www.inkscape.org/namespaces/inkscape"
   width="210mm"
   height="297mm"
   viewBox="0 0 210 297"
   version="1.1"
   id="svg8"
   inkscape:version="0.92.3 (2405546, 2018-03-11)"
   sodipodi:docname="mockup.svg">
  <defs
     id="defs2" />
  <sodipodi:namedview
     id="base"
     pagecolor="#ffffff"
     bordercolor="#666666"
     borderopacity="1.0"
     inkscape:pageopacity="0.0"
     inkscape:pageshadow="2"
     inkscape:zoom="0.97890839"
     inkscape:cx="590.35279"
     inkscape:cy="703.64586"
     inkscape:document-units="mm"
     inkscape:current-layer="layer1"
     showgrid="false"
     inkscape:window-width="1920"
     inkscape:window-height="1000"
     inkscape:window-x="-11"
     inkscape:window-y="-11"
     inkscape:window-maximized="1" />
  <metadata
     id="metadata5">
    <rdf:RDF>
      <cc:Work
         rdf:about="">
        <dc:format>image/svg+xml</dc:format>
        <dc:type
           rdf:resource="http://purl.org/dc/dcmitype/StillImage" />
        <dc:title />
      </cc:Work>
    </rdf:RDF>
  </metadata>
  <g
     inkscape:label="Layer 1"
     inkscape:groupmode="layer"
     id="layer1">
    <g
       id="g918"
       transform="translate(-5.291669)">
      <rect
         style="opacity:1;fill:#333333;fill-opacity:0.99134198;stroke:#000000;stroke-width:0;stroke-miterlimit:4;stroke-dasharray:none;stroke-opacity:1"
         id="rect870"
         width="129.1969"
         height="10.449979"
         x="42.895767"
         y="268.14944" />
      <rect
         y="22.819561"
         x="42.895767"
         height="7.0714283"
         width="129.1969"
         id="rect840"
         style="opacity:1;fill:#333333;fill-opacity:0.99134198;stroke:#000000;stroke-width:0;stroke-miterlimit:4;stroke-dasharray:none;stroke-opacity:1" />
      <circle
         r="1.4999995"
         cy="26.711683"
         cx="50.22636"
         id="path846"
         style="opacity:1;fill:#ffffff;fill-opacity:0.99134198;stroke:#000000;stroke-width:0;stroke-miterlimit:4;stroke-dasharray:none;stroke-opacity:1" />
      <g
         style="fill:#00ff00"
         transform="matrix(-0.71390154,0,0,0.82753497,177.94196,-4.5307169)"
         id="g860">
        <rect
           style="opacity:1;fill:#00ff00;fill-opacity:0.99134198;stroke:#000000;stroke-width:0;stroke-miterlimit:4;stroke-dasharray:none;stroke-opacity:1"
           id="rect854"
           width="15.135907"
           height="5.540823"
           x="18.514458"
           y="35.094746" />
        <rect
           y="36.445812"
           x="30.780851"
           height="2.783988"
           width="4.5525742"
           id="rect856"
           style="opacity:1;fill:#00ff00;fill-opacity:0.99134198;stroke:#000000;stroke-width:0;stroke-miterlimit:4;stroke-dasharray:none;stroke-opacity:1" />
      </g>
      <circle
         style="opacity:1;fill:#ffffff;fill-opacity:0.99134198;stroke:#000000;stroke-width:0;stroke-miterlimit:4;stroke-dasharray:none;stroke-opacity:1"
         id="circle862"
         cx="53.930527"
         cy="26.711683"
         r="1.4999995" />
      <circle
         r="1.4999995"
         cy="26.711683"
         cx="57.634693"
         id="circle864"
         style="opacity:1;fill:#ffffff;fill-opacity:0.99134198;stroke:#000000;stroke-width:0;stroke-miterlimit:4;stroke-dasharray:none;stroke-opacity:1" />
      <circle
         style="opacity:1;fill:#ffffff;fill-opacity:0.99134198;stroke:#000000;stroke-width:0;stroke-miterlimit:4;stroke-dasharray:none;stroke-opacity:1"
         id="circle866"
         cx="61.33886"
         cy="26.711683"
         r="1.4999995" />
      <circle
         r="1.4999995"
         cy="26.711683"
         cx="65.043022"
         id="circle868"
         style="opacity:1;fill:#ffffff;fill-opacity:0.99134198;stroke:#000000;stroke-width:0;stroke-miterlimit:4;stroke-dasharray:none;stroke-opacity:1" />
      <text
         transform="matrix(0,0.93883905,-1.0651453,0,0,0)"
         id="text878"
         y="-60.449188"
         x="286.95184"
         style="font-style:normal;font-weight:normal;font-size:9.62274265px;line-height:1.25;font-family:sans-serif;letter-spacing:0px;word-spacing:0px;fill:#ffffff;fill-opacity:1;stroke:none;stroke-width:0.24056856"
         xml:space="preserve"><tspan
           style="font-weight:bold;fill:#ffffff;stroke-width:0.24056856"
           y="-60.449188"
           x="286.95184"
           id="tspan876"
           sodipodi:role="line">V</tspan></text>
      <text
         transform="matrix(0,-0.93883905,1.0651453,0,0,0)"
         xml:space="preserve"
         style="font-style:normal;font-weight:normal;font-size:9.62274265px;line-height:1.25;font-family:sans-serif;letter-spacing:0px;word-spacing:0px;fill:#ffffff;fill-opacity:1;stroke:none;stroke-width:0.24056856"
         x="-294.30045"
         y="140.39922"
         id="text882"><tspan
           sodipodi:role="line"
           id="tspan880"
           x="-294.30045"
           y="140.39922"
           style="font-weight:bold;fill:#ffffff;stroke-width:0.24056856">V</tspan></text>
      <ellipse
         ry="2.9999993"
         rx="2.999999"
         style="opacity:1;fill:#ffffff;fill-opacity:0.99134198;stroke:#000000;stroke-width:0;stroke-miterlimit:4;stroke-dasharray:none;stroke-opacity:1"
         id="circle884"
         cx="108.87635"
         cy="272.86185" />
      <g
         style="fill:#501616"
         id="g838">
        <rect
           style="opacity:1;fill:#501616;fill-opacity:0.99134198;stroke:#000000;stroke-width:0;stroke-miterlimit:4;stroke-dasharray:none;stroke-opacity:1"
           id="rect832"
           width="128.81467"
           height="3.0579152"
           x="43.206272"
           y="20.392052" />
        <path
           style="fill:#501616;stroke-width:0.35277778"
           d="m 57.018312,291.32184 c -7.69448,-1.28532 -13.74178,-7.64517 -14.72735,-15.48852 -0.10971,-0.87312 -0.2284,-58.02312 -0.26375,-127 -0.0711,-138.733927 -0.24848,-127.851988 2.162,-132.627125 2.08491,-4.130174 6.04715,-7.4617998 10.5156,-8.8419618 2.21714,-0.684805 3.38935,-0.700349 52.816768,-0.700349 49.42739,0 50.5996,0.01556 52.81675,0.700349 6.37746,1.969801 11.36058,7.8101118 12.26735,14.3776028 0.21468,1.554914 0.38514,19.015738 0.43565,44.62639 0.0456,23.139626 0.16999,38.420794 0.27634,33.958154 l 0.19336,-8.113888 0.0782,8.202088 c 0.0499,5.23974 -0.0482,8.20208 -0.27167,8.20208 -0.23028,0 -0.35202,28.30559 -0.35618,82.81458 -0.004,54.94327 -0.12833,83.58631 -0.36886,85.10764 -1.16678,7.37978 -7.45154,13.66801 -14.8001,14.8083 -2.84433,0.44136 -98.123648,0.4174 -100.774088,-0.0253 z m 101.126868,-0.94638 0.88194,-0.45093 -0.88194,0.26371 c -1.49199,0.44611 -97.211048,0.54784 -99.789198,0.10606 -1.23538,-0.21169 -2.32123,-0.30981 -2.41301,-0.21803 -0.7327,0.73271 7.0367,0.85252 52.107778,0.80356 39.16997,-0.0425 49.39246,-0.14547 50.09443,-0.50437 z m 9.23759,-7.72267 c 2.07652,-2.14099 3.31701,-4.60608 3.79241,-7.53623 0.43356,-2.6723 0.50156,-245.261506 0.0703,-250.990176 -0.20005,-2.657651 0.1476,-2.776799 -0.55116,-4.301173 -1.02071,-2.226694 3.0207,4.160823 1.15061,3.247622 l -7.10335,-10.488569 2.41513,-0.734479 c 1.51206,1.450964 -0.27336,3.810973 -0.89121,3.446486 0.62461,-1.554874 1.39116,-1.476783 1.81241,-0.94126 2.38999,-1.333256 3.98167,7.070244 2.59084,7.035698 l -1.21627,-0.472997 -1.15856,-0.09944 c 0,0 -1.24904,0.03175 -60.79166,0.133109 -64.410635,0.109643 -62.390708,0.0296 -63.742518,2.062898 -0.165055,-1.717647 1.205403,-2.809475 1.205403,-2.809475 -1.557491,1.923957 -1.134143,5.408787 -1.134143,5.408787 -0.42391,9.015776 -0.38597,247.362209 0.04448,249.713959 0.51312,2.80339 1.78362,7.2513 3.78483,9.31365 1.74339,1.79665 1.328113,2.78895 0.256523,1.43764 -0.29104,-0.36701 -1.622297,-2.67287 -1.951277,-3.04018 -0.51076,-0.57027 -3.508705,-5.25331 -2.173807,-4.99212 0,0 1.864202,-0.007 4.333683,0 0.627953,0.002 23.125568,0.22804 59.787156,0.17142 l 62.85714,-0.0916 -1.3298,3.19438 c -0.28533,0.99481 -1.946,2.85345 -2.28812,3.13842 -0.31099,0.25902 -2.71796,3.22434 -2.71796,3.22434 -0.44224,-0.25269 1.52039,-3.5579 2.94887,-5.03073 z M 59.733212,7.6857122 c 3.38117,-0.380076 96.153988,-0.23883 97.882798,0.149024 l 1.05834,0.237437 -1.05834,-0.430227 c -0.8093,-0.328993 -12.30633,-0.458925 -48.85971,-0.552178 -47.546308,-0.121299 -51.392788,-0.04599 -52.924438,1.036168 -0.41178,0.29094 -0.37306,0.318975 0.18415,0.133354 0.38805,-0.129275 2.0608,-0.387385 3.7172,-0.573578 z"
           id="path826"
           inkscape:connector-curvature="0"
           sodipodi:nodetypes="ccscsscccsccscsscccccscccccccccccccccsccccscscsscccsccccccsccc" />
      </g>
    </g>
  </g>
</svg>
